<svg width="251.53994140625px" height="122.021240234375px" xmlns="http://www.w3.org/2000/svg" viewBox="124.230029296875 13.9893798828125 251.53994140625 122.021240234375" style="background: none;" preserveAspectRatio="xMidYMid"><defs><linearGradient id="editing-rainbow-gradient" x1="0" x2="1" y1="0.5" y2="0.5" gradientUnits="objectBoundingBox"><stop offset="0.00" stop-color="#e59583"></stop><stop offset="0.17" stop-color="#cbcb8c"></stop><stop offset="0.34" stop-color="#94c9e8"></stop><stop offset="0.51" stop-color="#14843c"></stop><stop offset="0.68" stop-color="#7c9ba0"></stop><stop offset="0.85" stop-color="#1087b0"></stop><stop offset="1.00" stop-color="#35578f"></stop></linearGradient><filter id="editing-rainbow" x="-100%" y="-100%" width="300%" height="300%"><feMorphology operator="dilate" radius="1,2" in="SourceGraphic" result="dilate"></feMorphology><feColorMatrix in="dilate" result="color" type="matrix" values="0.7 0 0 0 0  0 0.7 0 0 0  0 0 0.7 0 0  0 0 0 1 0"></feColorMatrix><feOffset dy="2" result="offset"></feOffset><feGaussianBlur stdDeviation="3"></feGaussianBlur><feOffset dy="3"></feOffset><feColorMatrix result="blur" type="matrix" values="0.7 0 0 0 0  0 0.7 0 0 0  0 0 0.7 0 0  0 0 0 1 0"></feColorMatrix><feMerge><feMergeNode in="blur"></feMergeNode><feMergeNode in="offset"></feMergeNode><feMergeNode in="SourceGraphic"></feMergeNode></feMerge></filter></defs><g filter="url(#editing-rainbow)"><g transform="translate(165.48499754071236, 97.09281158447266)"><path d="M0.45-0.32L0.45-0.32L8.51-42.24L8.51-42.24Q16.06-42.88 20.93-42.88L20.93-42.88L20.93-42.88Q25.79-42.88 28.93-42.46L28.93-42.46L28.93-42.46Q32.06-42.05 34.18-40.96L34.18-40.96L34.18-40.96Q38.40-38.91 38.40-33.28L38.40-33.28L38.40-33.28Q38.40-30.02 35.58-27.26L35.58-27.26L35.58-27.26Q32.96-24.77 30.08-24.19L30.08-24.19L30.08-24.19Q33.15-23.68 35.33-21.38L35.33-21.38L35.33-21.38Q37.63-18.94 37.63-15.17L37.63-15.17L37.63-15.17Q37.63-7.87 32.19-3.62L32.19-3.62L32.19-3.62Q26.75 0.64 16.06 0.64L16.06 0.64L16.06 0.64Q8.70 0.64 0.45-0.32ZM17.86-20.61L14.66-4.03L14.66-4.03Q15.23-3.97 15.36-3.97L15.36-3.97L15.94-3.97L15.94-3.97Q21.18-3.97 23.42-7.42L23.42-7.42L23.42-7.42Q25.09-10.11 25.09-15.04L25.09-15.04L25.09-15.04Q25.09-17.66 23.39-19.07L23.39-19.07L23.39-19.07Q21.70-20.48 17.86-20.61L17.86-20.61ZM27.58-33.22L27.58-33.22L27.58-33.22Q27.58-38.53 22.46-38.53L22.46-38.53L21.89-38.53L21.89-38.53Q21.63-38.53 21.25-38.46L21.25-38.46L18.69-24.96L19.33-24.96L19.33-24.96Q27.58-25.15 27.58-33.22ZM46.72 0L50.43-18.82L50.43-18.82Q48.58-36.16 42.05-39.87L42.05-39.87L42.05-39.87Q43.39-41.54 45.57-42.46L45.57-42.46L45.57-42.46Q47.74-43.39 50.37-43.39L50.37-43.39L50.37-43.39Q52.99-43.39 54.98-42.46L54.98-42.46L54.98-42.46Q56.96-41.54 58.24-39.55L58.24-39.55L58.24-39.55Q60.67-35.78 60.67-26.75L60.67-26.75L60.67-22.14L60.67-22.14Q64.51-33.41 68.35-38.27L68.35-38.27L68.35-38.27Q72.26-43.26 77.12-43.26L77.12-43.26L77.12-43.26Q79.04-43.26 80.32-42.27L80.32-42.27L80.32-42.27Q81.60-41.28 82.24-39.81L82.24-39.81L82.24-39.81Q77.31-37.63 72.58-31.36L72.58-31.36L72.58-31.36Q67.84-25.09 64.77-16.32L64.77-16.32L60.99 0L46.72 0ZM104.26 1.28L104.26 1.28L104.26 1.28Q96.06 1.28 95.30-10.37L95.30-10.37L84.29-10.37L84.29-10.37Q83.01-7.42 82.11-4.86L82.11-4.86L80.45 0L71.49 0L91.65-42.24L105.41-42.24L108.10-11.14L108.10-11.14Q108.74-4.42 111.30-2.43L111.30-2.43L111.30-2.43Q109.44 1.28 104.26 1.28ZM89.79-23.17L86.27-15.04L95.10-15.04L94.34-31.49L94.34-33.22L89.79-23.17ZM120.45 0L113.09 0L124.67-42.24L138.05-42.24L140.99-18.11L152.90-42.24L164.10-42.24L165.25-10.62L165.25-10.62Q165.50-4.35 168.58-2.43L168.58-2.43L168.58-2.43Q167.87-1.15 165.82 0.06L165.82 0.06L165.82 0.06Q163.78 1.28 161.06 1.28L161.06 1.28L161.06 1.28Q158.34 1.28 156.74 0.51L156.74 0.51L156.74 0.51Q155.14-0.26 154.24-1.54L154.24-1.54L154.24-1.54Q152.64-3.84 152.64-8.26L152.64-8.26L152.64-28.03L140.03 0L132.10 0L127.62-28.74L120.45 0Z" fill="url(#editing-rainbow-gradient)"></path></g></g><style>text {
  font-size: 64px;
  font-family: Arial Black;
  dominant-baseline: central;
  text-anchor: middle;
}</style></svg>